<svg version="1.1" viewBox="0.000000 0.000000 96.000000 96.000000" xmlns="http://www.w3.org/2000/svg" xmlns:xlink="http://www.w3.org/1999/xlink" id="Icons_Robot" overflow="hidden"><path d=" M 64.419998 72.000000 L 31.420000 72.000000 C 27.277901 72.000000 23.920000 75.357903 23.920000 79.500000 C 23.920000 83.642097 27.277901 87.000000 31.420000 87.000000 L 64.419998 87.000000 C 68.562103 87.000000 71.919998 83.642097 71.919998 79.500000 C 71.919998 75.357903 68.562103 72.000000 64.419998 72.000000 Z M 33.419998 82.500000 C 31.763100 82.500000 30.420000 81.156898 30.420000 79.500000 C 30.420000 77.843102 31.763100 76.500000 33.419998 76.500000 C 35.076900 76.500000 36.419998 77.843102 36.419998 79.500000 C 36.419998 81.156898 35.076900 82.500000 33.419998 82.500000 Z M 47.919998 82.500000 C 46.263100 82.500000 44.919998 81.156898 44.919998 79.500000 C 44.919998 77.843102 46.263100 76.500000 47.919998 76.500000 C 49.576900 76.500000 50.919998 77.843102 50.919998 79.500000 C 50.919998 81.156898 49.576900 82.500000 47.919998 82.500000 Z M 62.419998 82.500000 C 60.763100 82.500000 59.419998 81.156898 59.419998 79.500000 C 59.419998 77.843102 60.763100 76.500000 62.419998 76.500000 C 64.076897 76.500000 65.419998 77.843102 65.419998 79.500000 C 65.419998 81.156898 64.076897 82.500000 62.419998 82.500000 Z" stroke="#FFFFFF" stroke-width="1.000000" stroke-linecap="butt" stroke-opacity="1.000000" fill="#2591EB" fill-opacity="1.000000"/><circle cx="53.330000" cy="28.000000" r="1.500000" stroke="#FFFFFF" stroke-width="1.000000" stroke-linecap="butt" stroke-opacity="1.000000" fill="#2591EB" fill-opacity="1.000000"/><path d=" M 56.610001 18.000000 L 50.000000 18.000000 L 50.000000 13.450000 C 51.913200 12.345400 52.568699 9.899070 51.464100 7.985900 C 50.359501 6.072730 47.913200 5.417230 46.000000 6.521800 C 44.086800 7.626370 43.431301 10.072700 44.535900 11.985900 C 44.887001 12.594000 45.391899 13.098900 46.000000 13.450000 L 46.000000 18.000000 L 39.389999 18.000000 C 36.967800 18.005501 35.005501 19.967800 35.000000 22.389999 L 35.000000 33.610001 C 35.005501 36.032200 36.967800 37.994499 39.389999 38.000000 L 56.610001 38.000000 C 59.032200 37.994499 60.994499 36.032200 61.000000 33.610001 L 61.000000 22.389999 C 60.994499 19.967800 59.032200 18.005501 56.610001 18.000000 Z M 43.000000 31.000000 C 41.343102 31.000000 40.000000 29.656900 40.000000 28.000000 C 40.000000 26.343100 41.343102 25.000000 43.000000 25.000000 C 44.656898 25.000000 46.000000 26.343100 46.000000 28.000000 C 46.000000 29.656900 44.656898 31.000000 43.000000 31.000000 Z M 53.000000 31.000000 C 51.343102 31.000000 50.000000 29.656900 50.000000 28.000000 C 50.000000 26.343100 51.343102 25.000000 53.000000 25.000000 C 54.656898 25.000000 56.000000 26.343100 56.000000 28.000000 C 56.000000 29.656900 54.656898 31.000000 53.000000 31.000000 Z" stroke="#FFFFFF" stroke-width="1.000000" stroke-linecap="butt" stroke-opacity="1.000000" fill="#2591EB" fill-opacity="1.000000"/><circle cx="43.330000" cy="28.000000" r="1.500000" stroke="#FFFFFF" stroke-width="1.000000" stroke-linecap="butt" stroke-opacity="1.000000" fill="#2591EB" fill-opacity="1.000000"/><path d=" M 74.000000 58.820000 L 74.000000 50.490002 C 74.000000 48.010201 71.989799 46.000000 69.510002 46.000000 L 64.000000 46.000000 L 64.000000 41.000000 L 32.000000 41.000000 L 32.000000 47.000000 L 24.490000 47.000000 C 24.219400 47.000000 24.000000 46.780602 24.000000 46.509998 L 24.000000 38.220001 C 27.437599 37.204800 29.401300 33.595100 28.386101 30.157600 C 28.113899 29.236000 27.640499 28.386400 27.000000 27.670000 L 24.000000 30.330000 C 24.419600 30.786301 24.657900 31.380199 24.670000 32.000000 C 24.662500 33.380699 23.537100 34.493900 22.156401 34.486401 C 20.775700 34.478802 19.662600 33.353500 19.670099 31.972799 C 19.673300 31.376400 19.889601 30.800900 20.280001 30.350000 L 17.280001 27.719999 C 14.923100 30.427799 15.207600 34.533501 17.915400 36.890400 C 18.528000 37.423599 19.235001 37.837299 20.000000 38.110001 L 20.000000 46.509998 C 20.000000 48.989799 22.010201 51.000000 24.490000 51.000000 L 32.000000 51.000000 L 32.000000 69.000000 L 64.000000 69.000000 L 64.000000 50.000000 L 69.510002 50.000000 C 69.780602 50.000000 70.000000 50.219398 70.000000 50.490002 L 70.000000 58.820000 C 66.584396 59.924900 64.711304 63.589500 65.816200 67.005096 C 66.092796 67.859901 66.543503 68.648102 67.139999 69.320000 L 70.139999 66.660004 C 69.726196 66.206398 69.497803 65.613998 69.500000 65.000000 C 69.501198 63.619301 70.621399 62.500900 72.002098 62.502102 C 73.382797 62.503300 74.501198 63.623501 74.500000 65.004204 C 74.499496 65.609802 74.279198 66.194603 73.879997 66.650002 L 76.879997 69.279999 C 79.246101 66.587601 78.981598 62.486900 76.289200 60.120800 C 75.623100 59.535301 74.843903 59.092602 74.000000 58.820000 Z M 60.000000 55.000000 L 57.220001 55.000000 C 57.123299 55.017300 57.031300 55.054798 56.950001 55.110001 L 53.889999 58.240002 L 51.560001 52.720001 L 47.209999 61.720001 L 44.160000 50.000000 L 41.810001 55.000000 L 37.000000 55.000000 L 37.000000 53.000000 L 40.540001 53.000000 L 44.700001 44.150002 L 47.779999 55.930000 L 51.689999 47.930000 L 54.570000 54.750000 L 55.570000 53.750000 C 56.009102 53.305599 56.596500 53.038601 57.220001 53.000000 L 60.000000 53.000000 Z" stroke="#FFFFFF" stroke-width="1.000000" stroke-linecap="butt" stroke-opacity="1.000000" fill="#2591EB" fill-opacity="1.000000"/></svg>