<svg version="1.1" viewBox="0.000000 0.000000 96.000000 96.000000" xmlns="http://www.w3.org/2000/svg" xmlns:xlink="http://www.w3.org/1999/xlink" id="Icons_Flask" overflow="hidden"><circle cx="50.000000" cy="7.000000" r="3.000000" stroke="#FFFFFF" stroke-width="1.000000" stroke-linecap="butt" stroke-opacity="1.000000" fill="#ED7D31" fill-opacity="1.000000"/><circle cx="55.000000" cy="16.000000" r="3.000000" stroke="#FFFFFF" stroke-width="1.000000" stroke-linecap="butt" stroke-opacity="1.000000" fill="#ED7D31" fill-opacity="1.000000"/><circle cx="44.000000" cy="14.000000" r="3.000000" stroke="#FFFFFF" stroke-width="1.000000" stroke-linecap="butt" stroke-opacity="1.000000" fill="#ED7D31" fill-opacity="1.000000"/><circle cx="46.000000" cy="25.000000" r="4.000000" stroke="#FFFFFF" stroke-width="1.000000" stroke-linecap="butt" stroke-opacity="1.000000" fill="#ED7D31" fill-opacity="1.000000"/><path d=" M 67.500000 83.599998 L 56.000000 57.599998 L 56.000000 40.000000 C 56.000000 36.400002 58.900002 34.900002 59.000000 34.799999 C 60.000000 34.299999 60.400002 33.099998 59.900002 32.099998 C 59.500000 31.400000 58.799999 31.000000 58.000000 31.000000 L 58.000000 31.000000 L 38.000000 31.000000 L 38.000000 31.000000 C 37.200001 31.000000 36.500000 31.400000 36.099998 32.099998 C 35.599998 33.099998 36.000000 34.299999 37.000000 34.799999 C 37.000000 34.799999 40.000000 36.400002 40.000000 40.000000 L 40.000000 57.599998 L 28.500000 83.599998 C 27.700001 85.500000 27.900000 87.599998 29.000000 89.300003 C 30.100000 91.000000 32.000000 92.000000 34.000000 92.000000 L 62.000000 92.000000 C 64.000000 92.000000 65.900002 91.000000 67.000000 89.300003 C 68.099998 87.599998 68.300003 85.500000 67.500000 83.599998 Z M 52.000000 40.000000 L 52.000000 44.000000 L 44.000000 44.000000 L 44.000000 40.000000 C 44.000000 37.900002 43.400002 36.299999 42.700001 35.000000 L 53.400002 35.000000 C 52.599998 36.299999 52.000000 37.900002 52.000000 40.000000 Z" stroke="#FFFFFF" stroke-width="1.000000" stroke-linecap="butt" stroke-opacity="1.000000" fill="#ED7D31" fill-opacity="1.000000"/></svg>