<svg version="1.1" viewBox="0.000000 0.000000 96.000000 96.000000" xmlns="http://www.w3.org/2000/svg" xmlns:xlink="http://www.w3.org/1999/xlink" id="Icons_Crane" overflow="hidden"><path d=" M 84.000000 60.000000 L 68.000000 60.000000 L 68.000000 52.000000 L 84.000000 52.000000 L 84.000000 60.000000 Z M 39.599998 25.000000 L 39.000000 20.100000 L 59.599998 25.000000 L 39.599998 25.000000 Z M 23.700001 25.000000 L 30.799999 21.400000 L 30.400000 25.000000 L 23.700001 25.000000 Z M 30.100000 82.000000 L 30.500000 78.000000 L 39.400002 78.000000 L 39.799999 82.000000 L 30.100000 82.000000 Z M 31.500000 70.000000 L 38.599998 70.000000 L 39.000000 74.000000 L 31.000000 74.000000 L 31.500000 70.000000 Z M 32.400002 62.000000 L 37.700001 62.000000 L 38.099998 66.000000 L 31.900000 66.000000 L 32.400002 62.000000 Z M 33.200001 54.000000 L 36.700001 54.000000 L 37.099998 58.000000 L 32.700001 58.000000 L 33.200001 54.000000 Z M 34.099998 46.000000 L 35.799999 46.000000 L 36.200001 50.000000 L 33.599998 50.000000 L 34.099998 46.000000 Z M 35.000000 38.200001 L 35.400002 42.000000 L 34.500000 42.000000 L 35.000000 38.200001 Z M 78.000000 48.000000 L 78.000000 31.000000 L 85.000000 31.000000 C 86.500000 31.000000 87.800003 29.900000 88.000000 28.400000 C 88.199997 26.900000 87.199997 25.500000 85.699997 25.100000 L 38.299999 13.700000 L 38.000000 10.700000 C 37.799999 9.100000 36.500000 8.000000 35.000000 8.000000 C 33.500000 8.000000 32.200001 9.100000 32.000000 10.700000 L 31.600000 14.400000 L 9.600000 25.400000 C 8.400000 26.000000 7.700000 27.400000 8.000000 28.799999 C 8.400000 30.000000 9.600000 31.000000 11.000000 31.000000 L 29.799999 31.000000 L 24.100000 82.000000 L 14.000000 82.000000 L 14.000000 88.000000 L 56.000000 88.000000 L 56.000000 82.000000 L 45.900002 82.000000 L 40.200001 31.000000 L 74.000000 31.000000 L 74.000000 48.000000 L 64.000000 48.000000 L 64.000000 64.000000 L 88.000000 64.000000 L 88.000000 48.000000 L 78.000000 48.000000 Z" stroke="#FFFFFF" stroke-width="1.000000" stroke-linecap="butt" stroke-opacity="1.000000" fill="#92D050" fill-opacity="1.000000"/></svg>